<?xml version="1.0" encoding="UTF-8"?>
<svg id="Layer_2" data-name="Layer 2" xmlns="http://www.w3.org/2000/svg" viewBox="0 0 994.21 420.87">
  <defs>
    <style>
      .cls-1 {
        fill: #63beeb;
      }

      .cls-2 {
        fill: #231f20;
      }

      .cls-3 {
        fill: #8b8b8b;
      }

      .cls-4 {
        fill: #45b6e6;
      }

      .cls-5 {
        fill: #8b8c8c;
      }

      .cls-6 {
        fill: #3eb4e4;
      }

      .cls-7 {
        fill: #69cbf2;
      }

      .cls-8 {
        fill: #8b8c8b;
      }
    </style>
  </defs>
  <g id="Layer_1-2" data-name="Layer 1">
    <g>
      <path class="cls-2" d="M552.3,231.53c-1.61-7.96,5.9-5.58,11.38-8.09,10.15-4.67,7.08-15.26,7.61-24.32,2.28-38.99.43-78.49.9-117.66-.86-7.96-10.88-11.41-17.89-11.57l.14-4.35,39.34-15.67c6.32-.1,1.83,11.85,1.49,16.55-.43,5.84-.82,12.11-1.05,17.91-.8,20.39.68,41,.05,61.4l17.62-10.83c23.68-9.92,50.87-3.6,53.29,25.32,1.58,18.88-1.32,39.57.23,58.64,1.84,8.2,13.86,4.49,13.78,11.24-.03,2.31-1.72,2.28-3.45,2.49-15.52,1.85-33.63-2.75-49.5-1.05-1.64-7.75,6.14-5.93,10.93-9.54,7.53-5.66,4.65-21.2,5.01-29.91.47-11.27,4.11-34.8-4.42-43.4-11.16-11.25-35.69-5.48-43.47,7.54,1.59,18.01-2.33,40.07.24,57.59,1.39,9.51,7.47,12.71,16.73,11.74.26,1.42.02,5.99-1.5,5.99h-57.44Z"/>
      <path class="cls-2" d="M969.88,146.72c12.74,20.06-.6,50.18-23.93,54.42-5.32.97-18.99-.98-21-.05-5.99,2.77-11.29,13.96-2.05,16.99,20.04,6.57,61.95-4.98,70.01,23.87,8.37,29.96-25.53,55.59-52.45,57.47-44.64,3.12-59.02-32.52-26.54-61.41-6.91-6.15-14.06-14.62-11.76-24.74.91-3.97,13.44-10.62,16.78-14.19.01-2-8.63-6.78-10.65-8.82-26.45-26.76,1.04-66.23,37.85-61.25,6.07.82,11.25,5.15,16.22,5.75,5.96.73,15.7.18,22.04.02,4.23-.11,7.57-3.47,7.53,3.43,0,1.46-1.2,8.49-2.58,8.49h-19.48ZM931.65,137.97c-17.95,3.69-16.69,47.47.28,54.13,31.14,12.23,32.46-60.88-.28-54.13ZM919.07,240.59c-18.12,27.46,1.27,57.25,34.34,45.83,12.47-4.3,29.15-20.19,21.33-34.31-7.59-13.7-42.43-5.62-55.67-11.52Z"/>
      <path class="cls-2" d="M166.68,105.81c4.8,15.18,9.78,30.36,14.97,45.42,5.53,16.04,15.73,52.02,24.37,64.46,5.52,7.95,14.98,8.21,15.48,8.99.79,1.24.73,8.24-2.36,7.85h-58.45c.26-1.49-.37-7.61.01-7.97.45-.43,9.57-.52,12.37-2.11,6.27-3.57,1.58-16.06-.11-21.63-3.44-11.36-8.22-22.54-11.41-34-15.9.05-32.26-.82-47.93.45-2.64,9.57-6.74,18.79-9.38,28.35-2.23,8.08-6.61,19.3,1.56,25.38,7.34,5.46,18.93-2.15,13.78,11.4l-54.81.14c-1.16-10.68,1.24-7.53,7.98-10.49,9.19-4.04,11.75-8.31,15.86-17.09l34.11-94.15c.51-3.01,7.56-3.81,8.99-1l1.63,1.48c-4.74,15.3-9.55,30.58-14.43,45.85l-2.18.57,1.18-1.88c12.82-.2,25.78-.2,38.61,0l1.18,1.88-2.35-.84c-4.73-15.1-9.45-30.21-14.18-45.32l1.55-1.74c.96-2.97,8.97-5.47,10.99-2.99l7.48-1.26c.9-2.55,3.95-1.61,5.5.26Z"/>
      <path class="cls-6" d="M265.04,35.53c-5.02-5.13-10.51-7.69-17.17-10.3C191.28,3.04,67.95,8.97,19.88,49.49c-1.65,1.39-2.2,3.27-3.53,4.46-5.3,4.72-20.3-2.11-15.37-11.36.78-1.47,6.87-8.28,8.38-9.58C22.95,21.3,70.33,7.43,88.54,5.31c10.33-1.2,20.78-1.08,31.42-2.54,18.29-2.5,31.79-4,50.95-1.46,37.09,4.93,93.47,11.58,119.68,41.11,2.74,3.09,5.78,6.78,6.01,11.04.3,5.66-3.73,18.86-9.32,21.62-15.46,5.23-30.93,10.42-46.45,15.47-7.6,2.47-15.36,6.53-23.67,7.33-9.01.87-11.69-5.9-6-12.02,6.68-7.19,33-13.9,44.15-20.76,13.1-8.07,23.23-15.8,9.75-29.57Z"/>
      <path class="cls-2" d="M268.58,126.76v18.96c13.47-12.5,31.41-21.37,50.17-15.69,32.69,9.91,17.27,58.88,21.02,84.77.32,2.2,1.14,5.63,2.78,7.2,2.91,2.79,10.12,2.27,11.47,4.51.96,1.58.38,5.02-1.03,5.02h-51.45c-.99-8.41.97-5.01,6.44-7.04,5.18-1.92,6.61-4.79,8.06-9.9,2.92-10.27,2.48-48.99-.37-59.54-3.56-13.2-16.23-15.17-27.92-11.62-4.79,1.45-18.18,8.67-19.16,13.79-1.23,6.41-.22,22.51-.06,29.95.05,2.36.99,4.54,1.08,6.9.26,6.68-1.66,22.16,2.09,26.85,5.46,6.82,17.12-1.04,14.85,10.61h-56.44c-1.29,0-2.52-4.21-.54-5.53,1.21-.81,7.28-.81,10.03-1.95,3.5-1.46,5.71-4.73,6.73-8.24,2.78-9.54,1.93-44.89.03-55.38-.58-3.22-2.74-5.76-5.27-7.71-2.93-2.27-9.73-2.97-8.53-7.36.29-1.05,16.61-7.64,19.7-9.44,5.47-3.17,9.97-9.18,16.31-9.15Z"/>
      <path class="cls-2" d="M802.05,126.76v18.96c13.47-12.5,31.41-21.37,50.17-15.69,32.69,9.91,17.27,58.88,21.02,84.77.32,2.2,1.14,5.63,2.78,7.2,2.91,2.79,10.12,2.27,11.47,4.51.96,1.58.38,5.02-1.03,5.02h-51.45c-.99-8.41.97-5.01,6.44-7.04,5.18-1.92,6.61-4.79,8.06-9.9,2.92-10.27,2.48-48.99-.37-59.54-3.56-13.2-16.23-15.17-27.92-11.62-4.79,1.45-18.18,8.67-19.16,13.79-1.23,6.41-.22,22.51-.06,29.95.05,2.36.99,4.54,1.08,6.9.26,6.68-1.66,22.16,2.09,26.85,5.46,6.82,17.12-1.04,14.85,10.61h-56.44c-1.29,0-2.52-4.21-.54-5.53,1.21-.81,7.28-.81,10.03-1.95,3.5-1.46,5.71-4.73,6.73-8.24,2.78-9.54,1.93-44.89.03-55.38-.58-3.22-2.74-5.76-5.27-7.71-2.93-2.27-9.73-2.97-8.53-7.36.29-1.05,16.61-7.64,19.7-9.44,5.47-3.17,9.97-9.18,16.31-9.15Z"/>
      <path class="cls-2" d="M405.45,132.75c2.41,10.52-7.64,5.15-12.01,9.45-3.68,3.62,3.71,19.7,5.55,24.44,5.53,14.24,12.38,28.15,18.95,41.93,5.11-13.86,11.89-27.33,16.5-41.39,3.51-10.71,10.04-22.59-3.57-27.39-5.57-1.97-7.4,1.25-6.44-7.05l41.46-.99c8.31,5.31-5.47,8.12-9.51,11.45-3.02,2.49-4.09,4.83-5.83,8.15-21.29,40.56-32.67,94-54.55,134.1-4.76,8.73-11.93,17.74-23.26,13.17-8.94-3.6-9.76-22.94.9-24.55,4.46-.67,7.61,3.8,13.12,2.15,2.88-.86,6.48-8.27,7.87-11.1,2.2-4.49,11.05-25.29,10.63-28.84l-39.58-90.26c-5.19-7.65-13.18-5.34-14.17-6.3-.37-.36.24-5.6,0-6.98h53.95Z"/>
      <path class="cls-2" d="M509.34,110.8v21.95h34.97c-.24,1.43-3.36,11.97-4,11.97h-30.97c-.71,17.23-2.15,36.2-1.04,53.42.39,6.12,1.38,16.51,6.68,20.27,8.6,6.09,20.64,1.52,27.83-4.84,1.71,4.03-6.81,11.44-10.02,13.94-24.78,19.29-52.51-1.02-46.38-30.37-2.15-14.87,3.22-33.62.89-47.87-1.02-6.21-4.97-5.2-9.61-6.41-1.75-.46-2.37.75-2.35-1.65.03-3.46,8.26-6.87,11.49-9.49,2.89-2.34,7.05-6.6,9.55-9.42,4.09-4.63,6.2-12.79,12.96-11.5Z"/>
      <path class="cls-2" d="M735.11,127.76c-1.36,10.12-.69,20.24-1,30.42-.06,1.91-.98,3.83-1.03,5.96-.25,10.44-1.54,46.72,1.81,54.15,3.89,8.62,16.2,6.28,17.22,7.25.32.3-.22,5.64,0,6.99l-57.3-1.15c-1.21-.35-1.63-1.17-1.72-2.36-.61-7.68,14.05-.56,16.82-13.19,2.1-9.6,2.62-53.58-.24-62.15-3.42-10.26-13.91-2.98-12.38-12.82l37.82-13.1Z"/>
      <path class="cls-6" d="M127.72,95.83c2.29-2.84,8.84-3.05,10.99,0,6.55.48,13.15.76,19.8.82l.8,2.63c6.94,4.24,5.07,6.74-5.61,7.52-2.32.44-7.52,2.7-10.99,2.99-1.56,3.22-9.07,2.87-10.99,0-2.73.2-6.72.9-8.99,1-21.83.95-41.94-.12-62.93-6.49-4.02-1.22-28.8-12-29.98-14.46l-.35-1.44c-1.67-.71-10.51-4.69-10.98-5.69-.69-1.46,2.12-6.28,4.33-4.85,28,10.84,44.33,11.18,73.42,13.97,10.28.99,21.3,3.37,31.47,3.99Z"/>
      <path class="cls-2" d="M705.65,326.32c-.27-.07-1.95-1.47-1.01-2,1.79-2.23,6.88.32,7.56-5.43.46-3.92.59-18.42-.08-21.98-.77-4.09-5.74-3.76-5.97-7.5,4.71.77,11.4-6.43,14.47-7.01s.64,5.79,1.52,7c6.11-5.07,10.18-7.76,18.53-7.03,19.07,1.67,10.18,25.51,12.46,37.43,1.07,5.6,7.3,1.2,5.97,6.51h-22.98c-.84-4.6,1.45-2.16,3.98-3.48,4.57-2.39,3.98-28.34.49-32.41-4.11-4.8-17.55-.31-18.46,4.46-.67,3.49-.39,20,.44,23.52,1.05,4.44,3.11,5.41,7.57,4.93v2.99c-6.73-1.11-18.47,1.49-24.48,0Z"/>
      <path class="cls-2" d="M671.92,283.65c34.73-5.91,37.65,46.4,1.72,43.7-24.78-1.86-26.54-39.48-1.72-43.7ZM674.95,286.58c-16.07,2.08-12.05,37.6,2.73,37.61,16.97,0,13.44-39.7-2.73-37.61Z"/>
      <path class="cls-2" d="M461.39,326.32c1.09-5.32,7.26-.81,8.78-7.7,1.77-8.04.02-25.44.17-34.75.09-5.41,3.54-22-1.53-25.33-2.11-1.38-6.72-.33-6.41-4.06,6.01.73,13.34-4.72,18.46-5.03,3.08-.19.6,3.52.52,5.53-.7,18.37-2.29,40.85-.99,58.85.48,6.64.18,10.38,7.99,9.49v2.99h-26.98Z"/>
      <path class="cls-2" d="M428.92,299.38c-3.98,1.24.7,12.03,2.51,14.46,5.01,6.76,12.11,8.2,19.67,4.7,2.05-.95,2.9-3.35,5.29-3.19-.29,5.34-8.15,10.55-12.92,11.53-34.44,7.04-35.9-48.53,1.35-43.37,5.37.74,11.74,4.69,12.55,10.46.2,1.43.07,5.42-1.47,5.42-5.31,0-23.54-1.07-26.97,0ZM439.18,286.59c-7.16.81-17.09,11.05-.28,9.77,15.57-1.19,8.4-10.69.28-9.77Z"/>
      <path class="cls-2" d="M503.85,299.38c-3.98,1.24.7,12.03,2.51,14.46,5.01,6.76,12.11,8.2,19.67,4.7,2.05-.95,2.9-3.35,5.29-3.19-.29,5.34-8.15,10.55-12.92,11.53-34.44,7.04-35.9-48.53,1.35-43.37,5.37.74,11.74,4.69,12.55,10.46.2,1.43.07,5.42-1.47,5.42-5.31,0-23.54-1.07-26.97,0ZM514.1,286.59c-7.16.81-17.09,11.05-.28,9.77,15.57-1.19,8.4-10.69.28-9.77Z"/>
      <path class="cls-2" d="M127.72,95.83c2.11-8.22,5.85-16.24,6.11-24.83,6.35-1.2,11.5-5.59,17.33-8.12,4.36,10.78,7.91,21.89,11.52,32.95-2.93,1.78-5.53,3.01-7.99.4-5.37.44-10.7.31-15.99-.4-3.64-.1-7.36.22-10.99,0Z"/>
      <path class="cls-2" d="M834.02,316.35c-1.84,4.4-7.42,9.34-11.96,10.5-33.85,8.58-38.73-47.71.47-43.43,4.74.52,12.93,3.81,9.98,9.97-2.72,5.67-7.7-4.37-11.43-5.53-18.69-5.8-21.52,26.13-5.6,31.53,8.11,2.75,11.4-.82,18.53-3.03Z"/>
      <path class="cls-2" d="M577.27,316.35c-1.84,4.4-7.42,9.34-11.96,10.5-33.85,8.58-38.73-47.71.47-43.43,4.74.52,12.93,3.81,9.98,9.97-2.72,5.67-7.7-4.37-11.43-5.53-18.69-5.8-21.52,26.13-5.6,31.53,8.11,2.75,11.4-.82,18.53-3.03Z"/>
      <path class="cls-2" d="M596.25,313.84c1.15,8.96,7.94,9.6,14.49,4.49,1.67,4.67-6.91,8.61-11,8.98-23.2,2.11-8.63-34.7-13.63-37.79-1.24-.76-5.42,1.14-3.81-2.59.5-1.17,5.4-3.55,6.98-5,2.57-2.36,4.39-7.88,7.98-6l-1.01,8.47h15.98c-1.21,8.25-9.86,4.06-15.98,4.99.71,7.7-.96,16.95,0,24.45Z"/>
      <path class="cls-2" d="M615.74,326.32c-5.27-1.29,5.32-3.64,5.99-4.99,2.06-4.11,2.76-26.1-.94-29.02-1.36-1.08-5.54-.55-3.46-3.8.4-.62,12.63-6.08,13.37-6.13,3.14-.2.85,6.9,1.54,9.02,1.64-.55,1.77-2.56,3.48-3.99,5.18-4.33,17.76-6.79,14.72,1.71-2.39,6.69-3.09,2.76-6.78,2.34-4.36-.49-10.03-.5-11.22,4.65-.8,3.45-.64,19.77.44,23.08,1.51,4.63,5.15,4.26,9.34,4.15v2.99c-7.29-1.18-19.93,1.6-26.48,0Z"/>
      <path class="cls-8" d="M750.1,374.22c-.69,6.64-6.21,4.33-6.96,5.01-.29.26-.67,5.39-1.83,7.65-2.74,5.34-10.24,10.2-16.18,7.29-3.45,3.9,16.46,10.68,15.97,18.38-.76,11.69-29.06,10.15-29.99,1.03-.71-7.06,10.01-9.22,10.96-10.52.6-.83-1.04-3.78-.93-5.36.35-5.13,1.16-1.66.03-8.08-1.06-6,2.19-11.61,7.25-14.63,8.4-5.02,12.66.51,21.69-.78ZM737.11,376.2c-7.51-3.61-13.24,16.03-8.47,16.97,5.16,1.01,9.94-12.75,8.47-16.97ZM722.85,405.27c-.95.26-6.38,5.66-6.61,6.55-1.83,7.09,21.16,9.66,18.72,1.01-.65-2.3-9.51-8.27-12.11-7.56Z"/>
      <path class="cls-8" d="M654.19,351.26l-7.98,28.93c3.59-3.57,6.87-7.56,12.49-7.06,10.68.94-.87,18.27-1.5,24.02,1.13,1.17,5.42-3.4,5.01-4.98,5.09,2.59-2.82,8.68-6,9.54-13.44,3.64,2.59-19.81,1.99-22.99-1.28-6.78-11.68,6.17-12.8,8.15-2.09,3.7-3.73,12.15-5.11,13.85-2.03,2.5-6.64,2.02-5.88-1.79l11.77-39.28c1.04-2.37-6.14-2.15-3.96-4.39.5-.51,10.17-3.01,11.98-4Z"/>
      <path class="cls-3" d="M927.92,351.27l-7.98,28.93c14.04-14.24,23.24-1.9,12.41,12.91-5.82,7.95-25.31,16-23.32.65,1-7.73,11.7-31.27,9.78-36.89-.65-1.9-3.8-.78-2.88-3.6l11.98-1.99ZM930.92,378.2c-7.86-3.42-18.95,18.04-14.91,20.89,5.7,4.01,16.73-15.62,14.91-20.89Z"/>
      <path class="cls-2" d="M721.88,69.13c10.89-1.72,18.65,8.2,14.48,18.47-.85,2.1-5.69,6.51-7.95,7.03-19.59,4.48-23.26-22.86-6.54-25.5Z"/>
      <path class="cls-8" d="M781.07,420.11c.34-3.57,3.4-1.77,5.52-5.97,4.5-8.95,5.69-23.94,10.47-33.45.45-2.63-1.84-.55-3.49-.46s-2.49-1-1.51-2.01c.35-.37,4.61-1.12,5.97-2.54,2.35-2.44.55-6.27,5.51-6.48,3.03-.13.92,2.37.51,4.01,21.13-3.07,13.92,24.25-.17,28.28-2.41.69-7.27.22-8.35,1.64-.7.91-2.82,11.03-2.37,12.35.98,2.86,6.65.97,5.9,4.64h-17.98ZM797.06,399.15c11.49,2.48,22-22.33,6.03-21.9l-6.03,21.9Z"/>
      <path class="cls-2" d="M764.09,326.32c-1.36-4.91,3.47-1.99,5.76-4.22,1.51-1.47,1.95-26.44,1.07-29.04-1.04-3.06-6.96-1.75-5.82-4.14.67-1.41,14.48-6.65,16.46-6.51,1.54,8.3-3.4,33.37,1.41,39.52,1.5,1.92,4.38.97,6.11,1.88s-.08,2.51-.52,2.51h-24.48Z"/>
      <path class="cls-3" d="M553.29,372.22c1,.97-6.1,21.27-6.98,24.45,3.8,1.71,3.38-6.19,6.98-5.49.27,5.12-7.31,12.4-12.33,10.86-3.89-1.2,1.32-5.57-.14-7.86-16.86,19.94-24.54-.95-10.04-15.01,3.17-3.07,9.3-6.65,13.8-5.78,1.18.23,3.4,2.07,3.7,1.83.65-.52.37-4.37,5.02-2.98ZM542.02,376.35c-5.2.82-12.11,13.76-12.51,18.6-.47,5.61,4.72,2.51,7.19.11s14.39-20.14,5.32-18.7Z"/>
      <path class="cls-8" d="M568.29,380.19c4.66-3.76,7.51-7.91,14.27-6.76,9.42,1.6-3.62,19.19-2.28,24.72,2.4-.11,3.58-4.6,4.01-4.98.75-.67,2.33-.33,2.01,1.51-.88,5.09-12.72,11.01-13.64,5-.53-3.49,6.34-14.7,7.19-19.45,1.21-6.75-8.02.67-9.98,3.04-3.26,3.91-6.73,16.89-7.51,17.44-1.39.97-4.32.28-6.05.43-1.44-1.35,7.91-19.38,5.49-22.94-1.89.49-3.27,4.81-3.52,4.98-.41.28-2.19-1.11-1.89-2.38,1.16-4.91,14.82-13.24,11.91-.62Z"/>
      <path class="cls-8" d="M697.16,380.19c4.66-3.76,7.51-7.91,14.27-6.76,9.42,1.6-3.62,19.19-2.28,24.72,2.4-.11,3.58-4.6,4.01-4.98.75-.67,2.33-.33,2.01,1.51-.88,5.09-12.72,11.01-13.64,5-.53-3.49,6.34-14.7,7.19-19.45,1.21-6.75-8.02.67-9.98,3.04-3.26,3.91-6.73,16.89-7.51,17.44-1.39.97-4.32.28-6.05.43-1.44-1.35,7.91-19.38,5.49-22.94-1.89.49-3.27,4.81-3.52,4.98-.41.28-2.19-1.11-1.89-2.38,1.16-4.91,14.82-13.24,11.91-.62Z"/>
      <path class="cls-8" d="M600,374.47c3.94,3.74,4.57,22.66,5.75,22.7,4.06-7.44,6.02-15.86,2.5-23.95,10.19-1.99,5.57,12.3,3.48,17.94-3.72,10.02-16.56,32.72-29.75,28.75-5.38-1.62-.85-8.65,2.7-5.88,1.37,1.07-1.1,4.96,5.64,2.64,11.4-3.93,9.65-25.58,6.66-34.69-2.81-8.58-4.74-4.66-4.72,2.21-5.43.39-1.11-9.48,1-10.49,1.84-.88,5.29-.61,6.74.78Z"/>
      <path class="cls-3" d="M957.89,351.26l-12.98,44.41,1.49,1.47c9.13-11.72,5.16.61-1.11,3.87-4.9,2.55-7.99,1.73-7.15-4.11,1.52-10.59,9.15-24.2,10.69-35.27.84-6.08-.84-2.92-3.9-6.37l12.98-4Z"/>
      <path class="cls-8" d="M833.73,374.42c21.95-5.01,14.64,32.44-6.99,27.51-11.9-2.72-3.92-25.02,6.99-27.51ZM828.27,398.91c6.77,7.03,18.11-18.52,10.73-22.26-6.9-3.5-15.49,17.31-10.73,22.26Z"/>
      <path class="cls-8" d="M962.99,390.27c-.53.62-.41,6.59.83,7.44,5,3.49,9.75-5.36,12.06-3.54-8.49,15.25-27.18,8.01-17.42-9.92,4.04-7.43,21.01-18.39,20.49-5.58-.42,10.25-14.74,10.18-15.96,11.6ZM973.87,377.21c-2.79-2.72-10.56,6.8-9.98,9.97,3.56,1.69,12.06-7.94,9.98-9.97Z"/>
      <path class="cls-8" d="M631.22,367.23l-1.99,6.97,7.98.5c-1.12,5.62-8.61,2.5-9.89,3.59-.72.62-4.86,16.72-5.09,18.38-.55,4.08,4.14-1.15,5.02-2.03.2-.2,2.72-5.48,2.98-1.96.54,7.15-15.33,14.02-14.96,6.11.26-5.6,6.11-15.34,5.99-20.05-.02-.91-1.97-.45-2.93-1.09-4.07-2.71,3.69-3.3,5.87-4.95,3.36-2.55,1.61-6.82,7.02-5.46Z"/>
      <path class="cls-8" d="M759.73,396.55c1.41.95,6.17,5.45,7.2-.04.81-4.32-11.47-11.83-5.72-19.7,4.11-5.62,18.16-5.11,12.35,3.38-1.19.24-7.99-6.54-8.52-.49-.37,4.22,5.51,8.08,6.6,11.4,3.86,11.78-15.87,14.2-16.58,7.53-.42-3.93,2.02-3.87,4.68-2.09Z"/>
      <path class="cls-8" d="M853.63,396.55c1.41.95,6.17,5.45,7.2-.04.81-4.32-11.47-11.83-5.72-19.7,4.11-5.62,18.16-5.11,12.35,3.38-1.19.24-7.99-6.54-8.52-.49-.37,4.22,5.51,8.08,6.6,11.4,3.86,11.78-15.87,14.2-16.58,7.53-.42-3.93,2.02-3.87,4.68-2.09Z"/>
      <path class="cls-8" d="M874.61,396.55c1.41.95,6.17,5.45,7.2-.04.81-4.32-11.47-11.83-5.72-19.7,4.11-5.62,18.16-5.11,12.35,3.38-1.19.24-7.99-6.54-8.52-.49-.37,4.22,5.51,8.08,6.6,11.4,3.86,11.78-15.87,14.2-16.58,7.53-.42-3.93,2.02-3.87,4.68-2.09Z"/>
      <path class="cls-8" d="M679.07,374.31c2.77,1.64-6.27,19.83-5.89,23.85,12.21-12.08,5.98,2.23-1.75,3.79-11.72,2.37,1.32-18.3,1.73-23.74-1.19-.87-6.9,7.66-6.96,3.5-.04-3.09,9.09-9.69,12.86-7.39Z"/>
      <path class="cls-8" d="M903.85,374.31c2.77,1.64-6.27,19.83-5.89,23.85,12.21-12.08,5.98,2.23-1.75,3.79-11.72,2.37,1.32-18.3,1.73-23.74-1.19-.87-6.9,7.66-6.96,3.5-.04-3.09,9.09-9.69,12.86-7.39Z"/>
      <path class="cls-1" d="M22.83,77.87l-2.99,4.98c2.71.51,9.91,4.34,10.97,6.5.26.53-1,.44-.98.49-8.42-3.34-15.97-8.79-21.97-15.48-1.03-2.47,4.21-1.45,5.25-1.24,4.26.85,6.72,3.58,9.73,4.75Z"/>
      <path class="cls-2" d="M781.83,258.71c3.1,3.09,1.45,9.68-4.29,9.79-11.62.23-3.19-17.26,4.29-9.79Z"/>
      <path class="cls-5" d="M753.1,371.21c1.45-2.67,7.74-6.65,5.54-9.97-1.03-1.56-4.6-1.03-3.39-5.29,1.32-4.64,7.91-2.91,8.66,2.01.66,4.33-5.44,13.78-10.81,13.25Z"/>
      <path class="cls-7" d="M162.69,95.83c2.08.81,3.38,2.91,3.91,6.28,2.62-.27,4.32.3,5.08,1.7-.81.84-3.84,1.84-5,2-4.17.58-8.24.09-12.99,1l7.99-2c.46-2.83-2.49-2.3-4.05-4.46-.75-1.04-.78-3.09-1.08-3.36-1.51-1.35-15.06,1.45-17.84-1.15,7.96.22,16.01-.05,23.98,0Z"/>
      <path class="cls-4" d="M171.68,103.81c-8.46,1.9-6.84-1.37-8.99-7.98,1.96.01,8.65-.82,9.02-.56,1.62,1.15,1.55,6.91-.03,8.54Z"/>
      <path class="cls-3" d="M680.83,360.38c3.99-1.02,4.51,4.86,1.73,5.76-5.13,1.66-5.72-4.73-1.73-5.76Z"/>
      <path class="cls-3" d="M905.61,360.38c3.99-1.02,4.51,4.86,1.73,5.76-5.13,1.66-5.72-4.73-1.73-5.76Z"/>
    </g>
  </g>
</svg>